Coordinates
version=1
nRows=13
nColumns=40
inDegrees=yes

Units are S.I. units (second, meters, Newtons, ...)
Angles are in degrees.

endheader
time	pelvis_tilt	pelvis_list	pelvis_rotation	pelvis_tx	pelvis_ty	pelvis_tz	hip_flexion_r	hip_adduction_r	hip_rotation_r	knee_angle_r	knee_angle_r_beta	ankle_angle_r	subtalar_angle_r	mtp_angle_r	hip_flexion_l	hip_adduction_l	hip_rotation_l	knee_angle_l	knee_angle_l_beta	ankle_angle_l	subtalar_angle_l	mtp_angle_l	lumbar_extension	lumbar_bending	lumbar_rotation	arm_flex_r	arm_add_r	arm_rot_r	elbow_flex_r	pro_sup_r	wrist_flex_r	wrist_dev_r	arm_flex_l	arm_add_l	arm_rot_l	elbow_flex_l	pro_sup_l	wrist_flex_l	wrist_dev_l
      1.14250000	     -3.30450733	     -5.01149899	      3.01995004	      0.99816479	      0.91899433	      0.44817099	     23.36596036	      1.47366949	    -13.70291553	     21.86156978	     21.86156978	      4.67831671	     -4.10346582	     -1.59192172	      1.05930588	    -10.88397851	     -9.40548433	     37.59049008	     37.59049008	     10.35547929	     -7.64453826	    -18.89803220	     -8.99933082	      4.82945968	     -1.74667240	    -10.06084293	    -11.87122504	    -15.60314825	     24.91812384	     46.97120508	      0.00000000	      0.00000000	     15.79079929	    -16.67683536	     -5.94555890	     71.90267649	     47.36218370	      0.00000000	      0.00000000
      1.15400000	     -3.39331494	     -5.18126782	      3.34052041	      0.99812779	      0.92008218	      0.45030070	     22.63879789	      1.78094076	    -14.01998930	     21.53642772	     21.53642772	      5.19777886	     -3.99183214	     -1.86733133	      3.20862731	    -11.36046155	     -7.59855818	     41.61118360	     41.61118360	      7.61439209	    -10.64954728	    -18.62212972	     -8.99208497	      4.86923364	     -1.86064287	     -8.38055334	    -11.83934997	    -15.04087486	     26.21129399	     46.87288937	      0.00000000	      0.00000000	     14.93632122	    -16.25505946	     -6.04061505	     69.33781758	     47.33454275	      0.00000000	      0.00000000
      1.16550000	     -3.45027699	     -5.43586193	      3.65796677	      0.99794159	      0.92107412	      0.45235836	     21.81264510	      2.20238354	    -14.38953374	     21.05507061	     21.05507061	      5.65069399	     -3.74706219	     -2.12650314	      5.52993659	    -11.91931862	     -5.92534608	     45.80932819	     45.80932819	      5.16805055	    -12.77042157	    -17.55286055	     -9.06350517	      5.01438339	     -1.77209087	     -6.74186739	    -11.85450850	    -14.50707204	     27.52725516	     46.77918598	      0.00000000	      0.00000000	     14.08698166	    -15.76321167	     -5.94231414	     67.17290901	     47.29613917	      0.00000000	      0.00000000
      1.17700000	     -3.46167740	     -5.63055825	      3.97360759	      0.99755778	      0.92200025	      0.45415470	     20.98268052	      2.53733332	    -14.79902483	     20.64253175	     20.64253175	      6.04477563	     -3.45187976	     -2.52722657	      7.94536834	    -12.21293103	     -4.12438643	     50.02036856	     50.02036856	      3.35361434	    -14.45526684	    -14.77298787	     -9.19835656	      5.12893461	     -1.61032560	     -5.21644073	    -11.99720170	    -13.58377628	     29.28328320	     46.63433664	      0.00000000	      0.00000000	     13.52292737	    -15.16853035	     -5.89387399	     64.33990685	     47.25581570	      0.00000000	      0.00000000
      1.18850000	     -3.50921107	     -5.89745276	      4.25607900	      0.99695368	      0.92272820	      0.45583788	     20.14347030	      2.98667526	    -15.13916014	     20.06322231	     20.06322231	      6.28900844	     -3.18065433	     -3.07431311	     10.64282856	    -12.51948347	     -2.41495438	     54.45341112	     54.45341112	      3.33601056	    -14.50434271	     -8.68772419	     -9.31188929	      5.33272100	     -0.91956995	     -4.38341488	    -12.53346706	    -11.25307809	     32.10082460	     46.33106313	      0.00000000	      0.00000000	     13.39765919	    -14.26490764	     -5.58676790	     61.17320970	     47.20450330	      0.00000000	      0.00000000
      1.20000000	     -3.60208224	     -6.19831168	      4.55648177	      0.99617207	      0.92329097	      0.45735475	     19.38723751	      3.46587101	    -15.43804816	     19.52129311	     19.52129311	      6.64782443	     -2.96403496	     -3.15266337	     13.21123265	    -12.70341555	     -0.71257440	     58.06865307	     58.06865307	      1.61403584	    -15.77932320	     -7.42160965	     -9.41091508	      5.54476243	     -0.84246542	     -2.43185376	    -12.69648786	    -11.08140006	     33.27394112	     46.28414473	      0.00000000	      0.00000000	     12.18036755	    -13.91534460	     -5.29208209	     59.78328392	     47.15372397	      0.00000000	      0.00000000
      1.21150000	     -3.59411711	     -6.44788346	      4.77915074	      0.99520326	      0.92387101	      0.45876090	     18.60582071	      3.89489360	    -15.65884998	     19.11194750	     19.11194750	      6.99875359	     -2.73298293	     -3.26278837	     15.63589208	    -12.76117533	      0.79153601	     61.35101486	     61.35101486	      0.50312090	    -16.70715021	     -6.04507615	     -9.65621866	      5.69935783	     -0.63684223	     -0.29499941	    -12.94434087	    -10.90313017	     34.54559999	     46.23544341	      0.00000000	      0.00000000	     11.15238075	    -13.43899201	     -5.03190707	     58.27914261	     47.10472458	      0.00000000	      0.00000000
      1.22300000	     -3.72614916	     -6.49331308	      4.99853815	      0.99400404	      0.92437091	      0.45975173	     17.95819695	      4.03757125	    -15.97678649	     18.68976043	     18.68976043	      7.25922576	     -2.25197471	     -3.77155008	     18.46883166	    -12.28919203	      2.39158634	     64.87751101	     64.87751101	      2.93643279	    -16.04703557	      3.15296844	     -9.67310342	      5.73723539	     -0.16592358	      0.71887937	    -13.72575870	     -8.50483679	     37.88661034	     45.95177941	      0.00000000	      0.00000000	     11.54162423	    -12.47958519	     -5.28355687	     52.90651283	     47.05622166	      0.00000000	      0.00000000
      1.23450000	     -3.83606237	     -6.75056478	      5.19600623	      0.99271838	      0.92474871	      0.46096681	     17.26755482	      4.49104760	    -16.12940175	     18.13665000	     18.13665000	      7.53878280	     -2.09790793	     -3.76311928	     20.93649077	    -12.23435908	      3.58844002	     67.27719720	     67.27719720	      2.62929017	    -16.65159722	      3.70460507	     -9.81664334	      5.87225446	     -0.19822405	      2.94119736	    -13.95166725	     -8.30798115	     39.50576020	     45.89066627	      0.00000000	      0.00000000	     10.17891066	    -12.26482902	     -4.99180793	     51.50352157	     46.99800457	      0.00000000	      0.00000000
      1.24600000	     -3.87052050	     -6.89518083	      5.28220296	      0.99143472	      0.92522918	      0.46203485	     16.55271294	      4.80798452	    -16.19653825	     17.74054772	     17.74054772	      7.86444399	     -1.79623681	     -3.92786059	     23.30003511	    -12.00162771	      4.59018644	     69.39550641	     69.39550641	      3.73500823	    -16.71415802	      6.92044437	     -9.99113838	      5.98402194	      0.30634022	      4.42519902	    -14.85105175	     -6.34690667	     42.53269899	     45.67577831	      0.00000000	      0.00000000	      9.82016747	    -11.58084379	     -4.93716514	     48.21138560	     46.93804679	      0.00000000	      0.00000000
      1.25750000	     -3.97632379	     -7.05284612	      5.36621671	      0.99007784	      0.92563803	      0.46314573	     15.86894273	      5.16159206	    -16.24250421	     17.22750112	     17.22750112	      8.16794131	     -1.55145301	     -3.92339414	     25.55455801	    -11.85861723	      5.33013413	     70.76367527	     70.76367527	      4.01367437	    -17.22467817	      7.06412646	    -10.12303350	      6.02475615	      0.32113277	      6.80263833	    -15.04454647	     -6.26597898	     44.08227739	     45.62815091	      0.00000000	      0.00000000	      8.49266319	    -11.33693906	     -4.73292079	     46.71696934	     46.88612822	      0.00000000	      0.00000000
      1.26900000	     -4.08968723	     -7.20553938	      5.39861074	      0.98869975	      0.92602684	      0.46425209	     15.19502583	      5.51191296	    -16.28008285	     16.71855692	     16.71855692	      8.44812795	     -1.26171874	     -3.90522625	     27.72468337	    -11.76463234	      5.85100612	     71.61205817	     71.61205817	      4.59969855	    -17.64115485	      7.41727207	    -10.25911206	      6.06394592	      0.42375502	      9.13727470	    -15.29699456	     -6.04276367	     45.76762775	     45.56877877	      0.00000000	      0.00000000	      7.25831989	    -11.03613655	     -4.57699058	     44.92856661	     46.83637169	      0.00000000	      0.00000000
      1.28050000	     -4.17866325	     -7.29794627	      5.38831908	      0.98737085	      0.92645289	      0.46531614	     14.46481832	      5.81237735	    -16.23421788	     16.17422744	     16.17422744	      8.77547588	     -0.90911223	     -3.87765087	     29.72991167	    -11.69057002	      6.11334467	     71.91667739	     71.91667739	      5.45703941	    -17.98777186	      8.08275685	    -10.37963452	      6.03573257	      0.49745450	     11.44228609	    -15.54491007	     -5.60926183	     47.70456477	     45.49124584	      0.00000000	      0.00000000	      6.13134138	    -10.72477117	     -4.46316943	     42.80654290	     46.78883949	      0.00000000	      0.00000000
